<svg width="333" height="351" viewBox="0 0 333 351" fill="none" xmlns="http://www.w3.org/2000/svg">
<mask id="mask0_11_440" style="mask-type:alpha" maskUnits="userSpaceOnUse" x="48" y="4" width="237" height="342">
<path d="M108.086 324.304C103.28 340.155 86.6443 349.221 70.7167 344.669C54.3591 339.995 45.0442 322.782 50.0759 306.53L131.566 43.3305C134.921 32.4943 144.025 24.4235 155.186 22.3919L247.8 5.5332C264.335 2.52321 280.179 13.4876 283.188 30.0224C286.198 46.5574 275.235 62.4013 258.699 65.4113L186.011 78.6428C183.766 79.0515 181.938 80.6814 181.276 82.865L108.086 324.304Z" fill="url(#paint0_linear_11_440)"/>
<path d="M283.677 29.9392C286.686 46.4739 275.723 62.3182 259.187 65.3281C242.653 68.338 226.808 57.3737 223.798 40.8389C220.789 24.3042 231.753 8.45989 248.288 5.45004C264.823 2.44008 280.667 13.4045 283.677 29.9392Z" fill="url(#paint1_linear_11_440)"/>
</mask>
<g mask="url(#mask0_11_440)">
<rect x="-61.6514" width="387" height="245" fill="url(#paint2_linear_11_440)"/>
</g>
<path d="M284.328 29.939C287.338 46.4737 276.374 62.3179 259.839 65.3279C243.304 68.3377 227.46 57.3734 224.45 40.8387C221.44 24.304 232.404 8.45965 248.939 5.4498C265.474 2.43984 281.318 13.4042 284.328 29.939Z" fill="url(#paint3_linear_11_440)"/>
<defs>
<linearGradient id="paint0_linear_11_440" x1="102.849" y1="43.5" x2="231.849" y2="150" gradientUnits="userSpaceOnUse">
<stop stop-color="#B663FF"/>
<stop offset="0.994469" stop-color="#E7CCFF"/>
</linearGradient>
<linearGradient id="paint1_linear_11_440" x1="293.336" y1="34.9172" x2="225.336" y2="34.9172" gradientUnits="userSpaceOnUse">
<stop stop-color="#A255E5"/>
<stop offset="1" stop-color="#450F74"/>
</linearGradient>
<linearGradient id="paint2_linear_11_440" x1="78.8143" y1="9.15011" x2="148.597" y2="150.407" gradientUnits="userSpaceOnUse">
<stop stop-color="#B663FF"/>
<stop offset="0.994469" stop-color="#E7CCFF"/>
</linearGradient>
<linearGradient id="paint3_linear_11_440" x1="293.988" y1="34.917" x2="225.988" y2="34.917" gradientUnits="userSpaceOnUse">
<stop stop-color="#C58EF5"/>
<stop offset="1" stop-color="#8D47CA"/>
</linearGradient>
</defs>
</svg>
