<svg width="512" height="512" viewBox="0 0 512 512" fill="none" xmlns="http://www.w3.org/2000/svg">
<g clip-path="url(#clip0_1_395)">
<g clip-path="url(#clip1_1_395)">
<path d="M218.521 347.775L157.326 370.027C145.215 374.432 131.824 368.182 127.421 356.071L105.169 294.876C100.764 282.764 107.013 269.374 119.125 264.97L180.32 242.719C192.432 238.315 205.822 244.564 210.225 256.676L232.478 317.87C236.882 329.981 230.633 343.37 218.521 347.775Z" fill="#8CD6FE"/>
<path d="M380.583 377.722L315.771 371.45C302.943 370.208 293.551 358.802 294.792 345.973L301.066 281.161C302.308 268.333 313.714 258.941 326.542 260.183L391.355 266.456C404.183 267.698 413.575 279.104 412.334 291.932L406.061 356.745C404.818 369.572 393.412 378.964 380.583 377.722Z" fill="#BAE7FF"/>
</g>
</g>
<defs>
<clipPath id="clip0_1_395">
<rect width="512" height="512" fill="white"/>
</clipPath>
<clipPath id="clip1_1_395">
<rect width="583.916" height="583.916" fill="white" transform="translate(-35.9579 25.6001)"/>
</clipPath>
</defs>
</svg>
