<svg width="512" height="512" viewBox="0 0 512 512" fill="none" xmlns="http://www.w3.org/2000/svg">
<g clip-path="url(#clip0_1_199)">
<g clip-path="url(#clip1_1_199)">
<path d="M446.856 313.643L459.312 216.746C463.714 182.5 437.039 152.176 402.511 152.176H104.427C69.9001 152.176 43.2244 182.5 47.6267 216.746L60.0828 313.643L249.169 366.336L446.856 313.643Z" fill="#FFF4E5"/>
<g clip-path="url(#clip2_1_199)">
<mask id="mask0_1_199" style="mask-type:luminance" maskUnits="userSpaceOnUse" x="114" y="15" width="426" height="425">
<path d="M114.641 80.6025L473.909 15.2042L539.308 374.473L180.039 439.871L114.641 80.6025Z" fill="white"/>
</mask>
<g mask="url(#mask0_1_199)">
<path d="M273.78 375.904C268.973 391.755 252.338 400.821 236.411 396.269C220.053 391.595 210.738 374.382 215.77 358.13L297.26 94.9306C300.615 84.0944 309.719 76.0236 320.879 73.992L413.493 57.1333C430.029 54.1233 445.872 65.0877 448.882 81.6225C451.892 98.1575 440.928 114.001 424.393 117.011L351.705 130.243C349.46 130.652 347.632 132.282 346.97 134.465L273.78 375.904Z" fill="#E68A97"/>
<path d="M448.882 81.622C451.892 98.1567 440.928 114.001 424.393 117.011C407.858 120.021 392.014 109.056 389.004 92.5217C385.994 75.9869 396.959 60.1426 413.493 57.1328C430.029 54.1228 445.872 65.0872 448.882 81.622Z" fill="#C86774"/>
</g>
</g>
<path d="M313.663 609.516H358.443C387.248 609.516 411.571 588.12 415.243 559.549L446.856 313.643H250.403L168.824 377.531L235.834 596.82L313.663 609.516Z" fill="#F9EE80"/>
<path d="M230.94 414.635C230.94 378.935 237.857 344.856 250.403 313.643H60.0828L91.6953 559.549C95.368 588.12 119.69 609.516 148.496 609.516H313.663C262.664 560.244 230.94 491.148 230.94 414.635Z" fill="#F1E12B"/>
<path d="M138.742 434.303C146.227 431.228 149.802 422.667 146.727 415.182C143.652 407.697 135.092 404.122 127.606 407.197C120.121 410.272 116.546 418.833 119.621 426.318C122.696 433.803 131.257 437.378 138.742 434.303Z" fill="#FFF4E5"/>
<path d="M267.49 400.153C269.805 392.401 265.396 384.241 257.644 381.926C249.892 379.612 241.731 384.02 239.417 391.772C237.103 399.524 241.511 407.685 249.263 409.999C257.015 412.314 265.176 407.905 267.49 400.153Z" fill="#FFF4E5"/>
<path d="M379.253 434.272C386.73 431.172 390.279 422.599 387.18 415.122C384.081 407.645 375.507 404.096 368.03 407.195C360.553 410.294 357.004 418.868 360.103 426.345C363.202 433.822 371.776 437.371 379.253 434.272Z" fill="#FFF4E5"/>
<path d="M180.039 473.247C175.173 473.247 171.228 469.303 171.228 464.435V450.325C171.228 445.458 175.173 441.513 180.039 441.513C184.906 441.513 188.851 445.458 188.851 450.325V464.435C188.851 469.302 184.906 473.247 180.039 473.247Z" fill="#585858"/>
<path d="M326.9 473.247C322.033 473.247 318.089 469.303 318.089 464.435V450.325C318.089 445.458 322.033 441.513 326.9 441.513C331.768 441.513 335.712 445.458 335.712 450.325V464.435C335.712 469.302 331.767 473.247 326.9 473.247Z" fill="#585858"/>
<path d="M253.469 481.646C243.504 481.646 234.026 477.33 227.467 469.805C224.269 466.137 224.652 460.57 228.32 457.372C231.988 454.175 237.554 454.558 240.753 458.226C243.963 461.911 248.6 464.024 253.469 464.024C258.339 464.024 262.974 461.911 266.187 458.226C269.384 454.557 274.952 454.175 278.619 457.373C282.288 460.571 282.669 466.137 279.471 469.805C272.911 477.33 263.435 481.646 253.469 481.646Z" fill="#585858"/>
<path d="M218.521 347.775L157.326 370.027C145.215 374.432 131.824 368.182 127.421 356.071L105.169 294.876C100.764 282.764 107.013 269.374 119.125 264.97L180.32 242.719C192.432 238.315 205.822 244.564 210.225 256.676L232.478 317.87C236.882 329.981 230.633 343.37 218.521 347.775Z" fill="#8CD6FE"/>
<path d="M380.583 377.722L315.771 371.45C302.942 370.208 293.55 358.802 294.792 345.973L301.066 281.161C302.308 268.333 313.714 258.941 326.542 260.183L391.355 266.456C404.183 267.698 413.575 279.104 412.334 291.932L406.061 356.745C404.817 369.572 393.412 378.964 380.583 377.722Z" fill="#BAE7FF"/>
</g>
</g>
<defs>
<clipPath id="clip0_1_199">
<rect width="512" height="512" fill="white"/>
</clipPath>
<clipPath id="clip1_1_199">
<rect width="583.916" height="583.916" fill="white" transform="translate(-35.9579 25.6)"/>
</clipPath>
<clipPath id="clip2_1_199">
<rect width="365.172" height="365.172" fill="white" transform="translate(114.641 80.6025) rotate(-10.3167)"/>
</clipPath>
</defs>
</svg>
