<svg width="512" height="650" viewBox="0 0 512 650" fill="none" xmlns="http://www.w3.org/2000/svg">
<g clip-path="url(#clip0_12_532)">
<g clip-path="url(#clip1_12_532)">
<path d="M189.329 576.107C191.182 568.225 186.295 560.333 178.413 558.48C170.532 556.627 162.64 561.514 160.787 569.396C158.934 577.278 163.821 585.169 171.703 587.022C179.584 588.875 187.476 583.988 189.329 576.107Z" fill="#FFF4E5"/>
<path d="M341.074 568.432C342.935 560.558 338.061 552.667 330.188 550.806C322.314 548.944 314.423 553.818 312.561 561.692C310.7 569.565 315.574 577.457 323.448 579.318C331.321 581.179 339.213 576.305 341.074 568.432Z" fill="#FFF4E5"/>
<path d="M365.82 192C400.875 192 427.917 222.856 423.319 257.608L380.45 581.608C376.634 610.448 352.043 632 322.951 632H188.049C158.957 632 134.366 610.448 130.55 581.608L87.6807 257.608C83.0827 222.856 110.125 192 145.18 192H365.82Z" fill="#FFFBF1"/>
<g clip-path="url(#clip2_12_532)">
<mask id="mask0_12_532" style="mask-type:luminance" maskUnits="userSpaceOnUse" x="114" y="37" width="426" height="426">
<path d="M114.599 103.002L473.867 37.6041L539.265 396.873L179.997 462.271L114.599 103.002Z" fill="white"/>
</mask>
<g mask="url(#mask0_12_532)">
<path d="M273.737 398.304C268.931 414.155 252.296 423.221 236.368 418.669C220.01 413.995 210.696 396.782 215.727 380.53L297.217 117.331C300.572 106.494 309.676 98.4235 320.837 96.3919L413.451 79.5332C429.986 76.5232 445.83 87.4876 448.84 104.022C451.85 120.557 440.886 136.401 424.351 139.411L351.663 152.643C349.418 153.051 347.59 154.681 346.928 156.865L273.737 398.304Z" fill="url(#paint0_linear_12_532)"/>
<path d="M448.84 104.022C451.849 120.556 440.886 136.401 424.35 139.411C407.816 142.42 391.971 131.456 388.962 114.921C385.952 98.3867 396.916 82.5424 413.451 79.5326C429.986 76.5226 445.83 87.487 448.84 104.022Z" fill="url(#paint1_linear_12_532)"/>
</g>
</g>
<path d="M404.5 314.885L368.5 579C365.718 608.645 351.322 621.885 329.5 621.885H182.477C160.655 621.885 143.282 604.145 140.5 574.5L107 314.885L404.5 314.885Z" fill="url(#paint2_linear_12_532)"/>
<path d="M213.724 350.277L165.644 345.623C156.128 344.702 149.161 336.241 150.082 326.724L154.736 278.644C155.657 269.128 164.118 262.161 173.635 263.082L221.715 267.736C231.232 268.657 238.199 277.118 237.278 286.635L232.624 334.715C231.702 344.231 223.241 351.198 213.724 350.277Z" fill="url(#paint3_linear_12_532)"/>
<path d="M365.678 343.411L319.459 360.218C310.311 363.545 300.198 358.825 296.872 349.677L280.066 303.458C276.739 294.311 281.459 284.197 290.607 280.872L336.826 264.066C345.973 260.739 356.086 265.459 359.412 274.607L376.219 320.826C379.545 329.972 374.826 340.085 365.678 343.411Z" fill="url(#paint4_linear_12_532)"/>
</g>
</g>
<defs>
<linearGradient id="paint0_linear_12_532" x1="268.5" y1="117.5" x2="397.5" y2="224" gradientUnits="userSpaceOnUse">
<stop stop-color="#B663FF"/>
<stop offset="0.994469" stop-color="#E7CCFF"/>
</linearGradient>
<linearGradient id="paint1_linear_12_532" x1="458.5" y1="109" x2="390.5" y2="109" gradientUnits="userSpaceOnUse">
<stop stop-color="#C58EF5"/>
<stop offset="1" stop-color="#8D47CA"/>
</linearGradient>
<linearGradient id="paint2_linear_12_532" x1="145.466" y1="418.873" x2="383.41" y2="403.891" gradientUnits="userSpaceOnUse">
<stop stop-color="#F1CFFF"/>
<stop offset="1" stop-color="#FFDDDB"/>
</linearGradient>
<linearGradient id="paint3_linear_12_532" x1="231.774" y1="271" x2="162" y2="338.552" gradientUnits="userSpaceOnUse">
<stop stop-color="#C8ECFF"/>
<stop offset="1" stop-color="#54BFF8"/>
</linearGradient>
<linearGradient id="paint4_linear_12_532" x1="371" y1="272" x2="292.5" y2="348" gradientUnits="userSpaceOnUse">
<stop stop-color="#C8ECFF"/>
<stop offset="1" stop-color="#54BFF8"/>
</linearGradient>
<clipPath id="clip0_12_532">
<rect width="512" height="650" fill="white"/>
</clipPath>
<clipPath id="clip1_12_532">
<rect width="583.916" height="583.916" fill="white" transform="translate(-36 48)"/>
</clipPath>
<clipPath id="clip2_12_532">
<rect width="365.172" height="365.172" fill="white" transform="translate(114.599 103.002) rotate(-10.3167)"/>
</clipPath>
</defs>
</svg>
