<svg width="512" height="650" viewBox="0 0 512 650" fill="none" xmlns="http://www.w3.org/2000/svg">
<g clip-path="url(#clip0_11_380)">
<g clip-path="url(#clip1_11_380)">
<path d="M189.329 576.107C191.182 568.225 186.295 560.333 178.413 558.48C170.532 556.627 162.64 561.514 160.787 569.396C158.934 577.278 163.821 585.169 171.703 587.022C179.584 588.875 187.476 583.988 189.329 576.107Z" fill="#FFF4E5"/>
<path d="M341.075 568.432C342.936 560.558 338.062 552.667 330.188 550.806C322.315 548.944 314.423 553.818 312.562 561.692C310.701 569.565 315.575 577.457 323.448 579.318C331.322 581.179 339.213 576.305 341.075 568.432Z" fill="#FFF4E5"/>
<path d="M365.82 192C400.875 192 427.917 222.856 423.319 257.608L380.45 581.608C376.634 610.448 352.043 632 322.951 632H188.049C158.957 632 134.366 610.448 130.55 581.608L87.6807 257.608C83.0827 222.856 110.125 192 145.18 192H365.82Z" fill="white"/>
<g clip-path="url(#clip2_11_380)">
<mask id="mask0_11_380" style="mask-type:luminance" maskUnits="userSpaceOnUse" x="114" y="37" width="426" height="426">
<path d="M114.599 103.002L473.867 37.6041L539.265 396.873L179.997 462.271L114.599 103.002Z" fill="white"/>
</mask>
<g mask="url(#mask0_11_380)">
<path d="M273.737 398.304C268.931 414.155 252.296 423.221 236.368 418.669C220.01 413.995 210.696 396.782 215.727 380.53L297.217 117.331C300.572 106.494 309.676 98.4235 320.837 96.3919L413.451 79.5332C429.986 76.5232 445.83 87.4876 448.84 104.022C451.85 120.557 440.886 136.401 424.351 139.411L351.663 152.643C349.418 153.051 347.59 154.681 346.928 156.865L273.737 398.304Z" fill="url(#paint0_linear_11_380)"/>
<path d="M448.84 104.022C451.85 120.557 440.886 136.401 424.351 139.411C407.816 142.421 391.972 131.456 388.962 114.922C385.952 98.387 396.917 82.5427 413.451 79.5328C429.987 76.5228 445.83 87.4873 448.84 104.022Z" fill="url(#paint1_linear_11_380)"/>
</g>
</g>
<path d="M404.5 314.885L368.5 579C365.718 608.645 351.322 621.885 329.5 621.885H182.477C160.655 621.885 143.282 604.145 140.5 574.5L107 314.885L404.5 314.885Z" fill="url(#paint2_linear_11_380)"/>
<path d="M500.6 249.7C497.2 239.1 488.2 230.7 474 224.8C475.5 224 477 223.2 478.6 222.6C468.5 218.5 460.5 210.5 456.4 200.4C453.7 207 449.4 212.7 443.9 217C434.1 215.6 422.5 214.7 410.5 214.5L413 218C423 218.2 430.5 219.2 439 220.3C437.5 221.1 436 221.9 434.3 222.6C444.4 226.7 452.4 234.7 456.5 244.8C459.3 237.9 464 231.9 469.9 227.5C484.4 233 493.7 240.9 496.8 250.9C503.1 270.8 484.4 298.5 445.4 326.7C405.2 355.8 348.1 382.9 284.5 403.1C220.9 423.3 158.6 434 109 433.4C100.4 433.3 92.4001 432.8 84.9001 432C77.9001 427.5 72.4001 421 69.3001 413.2C67.1001 418.6 63.8001 423.4 59.6001 427.4C39.7001 421.9 27.0001 413 23.2001 401C15.2001 375.7 36.7 345.2 96.5 310.5L96 306.5C34.2 342.6 10.7001 375 19.4001 402.3C23.5001 415.1 36.0001 424.7 55.8001 430.6C53.1001 432.6 50.2001 434.2 47.1001 435.5C57.2001 439.6 65.2001 447.6 69.3001 457.7C73.1001 448.4 80.2001 440.8 89.3001 436.5C95.5001 437 102 437.3 108.9 437.4H113.1C162.4 437.4 223.5 426.6 285.6 406.9C349.5 386.6 407.1 359.3 447.6 330C488.8 300.2 507.6 271.7 500.6 249.7Z" fill="black"/>
<path d="M213.724 350.277L165.644 345.623C156.128 344.702 149.161 336.241 150.082 326.724L154.736 278.644C155.657 269.128 164.118 262.161 173.635 263.082L221.715 267.736C231.232 268.657 238.199 277.118 237.278 286.635L232.624 334.715C231.702 344.231 223.241 351.198 213.724 350.277Z" fill="url(#paint3_linear_11_380)"/>
<path d="M365.678 343.411L319.459 360.218C310.311 363.545 300.198 358.825 296.872 349.677L280.066 303.458C276.739 294.311 281.459 284.197 290.607 280.872L336.826 264.066C345.973 260.739 356.086 265.459 359.412 274.607L376.219 320.826C379.545 329.972 374.826 340.085 365.678 343.411Z" fill="url(#paint4_linear_11_380)"/>
</g>
<path d="M235.272 115.219L193.513 103.431C186.792 101.527 181.438 96.1719 179.533 89.4516L167.781 47.7281C166.38 42.7688 162.139 39.5703 157 39.5703C151.861 39.5703 147.62 42.7688 146.219 47.7281L134.431 89.4875C132.527 96.2078 127.172 101.563 120.452 103.467L78.7281 115.219C73.7688 116.62 70.5703 120.861 70.5703 126C70.5703 131.139 73.7688 135.38 78.7281 136.781L120.487 148.569C127.208 150.473 132.563 155.828 134.467 162.548L146.219 204.272C147.62 209.231 151.861 212.43 157 212.43C162.139 212.43 166.38 209.231 167.781 204.272L179.569 162.513C181.473 155.792 186.828 150.438 193.548 148.533L235.272 136.781C240.231 135.38 243.43 131.139 243.43 126C243.43 120.861 240.231 116.62 235.272 115.219Z" fill="black"/>
</g>
<defs>
<linearGradient id="paint0_linear_11_380" x1="268.5" y1="117.5" x2="397.5" y2="224" gradientUnits="userSpaceOnUse">
<stop stop-color="#B663FF"/>
<stop offset="0.994469" stop-color="#E7CCFF"/>
</linearGradient>
<linearGradient id="paint1_linear_11_380" x1="458.5" y1="109" x2="390.5" y2="109" gradientUnits="userSpaceOnUse">
<stop stop-color="#C58EF5"/>
<stop offset="1" stop-color="#8D47CA"/>
</linearGradient>
<linearGradient id="paint2_linear_11_380" x1="145.466" y1="418.873" x2="383.41" y2="403.891" gradientUnits="userSpaceOnUse">
<stop stop-color="#F1CFFF"/>
<stop offset="1" stop-color="#FFDDDB"/>
</linearGradient>
<linearGradient id="paint3_linear_11_380" x1="231.774" y1="271" x2="162" y2="338.552" gradientUnits="userSpaceOnUse">
<stop stop-color="#C8ECFF"/>
<stop offset="1" stop-color="#54BFF8"/>
</linearGradient>
<linearGradient id="paint4_linear_11_380" x1="371" y1="272" x2="292.5" y2="348" gradientUnits="userSpaceOnUse">
<stop stop-color="#C8ECFF"/>
<stop offset="1" stop-color="#54BFF8"/>
</linearGradient>
<clipPath id="clip0_11_380">
<rect width="512" height="650" fill="white"/>
</clipPath>
<clipPath id="clip1_11_380">
<rect width="583.916" height="583.916" fill="white" transform="translate(-36 48)"/>
</clipPath>
<clipPath id="clip2_11_380">
<rect width="365.172" height="365.172" fill="white" transform="translate(114.599 103.002) rotate(-10.3167)"/>
</clipPath>
</defs>
</svg>
