<svg width="485" height="424" viewBox="0 0 485 424" fill="none" xmlns="http://www.w3.org/2000/svg">
<path d="M483.097 215.7C479.697 205.1 470.697 196.7 456.497 190.8C457.997 190 459.497 189.2 461.097 188.6C450.997 184.5 442.997 176.5 438.897 166.4C436.197 173 431.897 178.7 426.397 183C416.597 181.6 406.497 180.2 394.497 180L396.997 183.5C406.997 183.7 412.997 185.2 421.497 186.3C419.997 187.1 418.497 187.9 416.797 188.6C426.897 192.7 434.897 200.7 438.997 210.8C441.797 203.9 446.497 197.9 452.397 193.5C466.897 199 476.197 206.9 479.297 216.9C485.597 236.8 466.897 264.5 427.897 292.7C387.697 321.8 330.597 348.9 266.997 369.1C203.397 389.3 141.097 400 91.4972 399.4C82.8972 399.3 74.8972 398.8 67.3972 398C60.3972 393.5 54.8973 387 51.7973 379.2C49.5973 384.6 46.2972 389.4 42.0972 393.4C22.1972 387.9 9.49724 379 5.69724 367C-2.30276 341.7 16.3489 312.7 76.1489 278L75.6489 274C13.8489 310.1 -6.80276 341 1.89724 368.3C5.99724 381.1 18.4972 390.7 38.2972 396.6C35.5972 398.6 32.6972 400.2 29.5972 401.5C39.6972 405.6 47.6973 413.6 51.7973 423.7C55.5973 414.4 62.6972 406.8 71.7972 402.5C77.9972 403 84.4972 403.3 91.3972 403.4H95.5972C144.897 403.4 205.997 392.6 268.097 372.9C331.997 352.6 389.597 325.3 430.097 296C471.297 266.2 490.097 237.7 483.097 215.7Z" fill="black"/>
<path d="M217.42 81.2188L175.661 69.4312C168.941 67.5266 163.586 62.1719 161.681 55.4516L149.93 13.7281C148.528 8.76875 144.288 5.57031 139.148 5.57031C134.009 5.57031 129.769 8.76875 128.367 13.7281L116.58 55.4875C114.675 62.2078 109.32 67.5625 102.6 69.4672L60.8766 81.2188C55.9172 82.6203 52.7188 86.8609 52.7188 92C52.7188 97.1391 55.9172 101.38 60.8766 102.781L102.636 114.569C109.356 116.473 114.711 121.828 116.616 128.548L128.367 170.272C129.769 175.231 134.009 178.43 139.148 178.43C144.288 178.43 148.528 175.231 149.93 170.272L161.717 128.513C163.622 121.792 168.977 116.438 175.697 114.533L217.42 102.781C222.38 101.38 225.578 97.1391 225.578 92C225.578 86.8609 222.38 82.6203 217.42 81.2188Z" fill="black"/>
</svg>
