<svg width="512" height="512" viewBox="0 0 512 512" fill="none" xmlns="http://www.w3.org/2000/svg">
<g clip-path="url(#clip0_11_340)">
<g clip-path="url(#clip1_11_340)">
<path d="M364.699 191.888C400.142 191.888 427.297 223.396 422.064 258.451L381.162 532.451C376.921 560.861 352.523 581.888 323.798 581.888H187.202C158.477 581.888 134.079 560.861 129.838 532.451L88.9362 258.451C83.7035 223.396 110.858 191.888 146.301 191.888H364.699Z" fill="white"/>
<path d="M407 319L378 513C375.218 535.21 355.844 549 334.022 549H174.977C153.155 549 135.782 535.71 133 513.5L104 319L407 319Z" fill="url(#paint0_linear_11_340)"/>
<path d="M500.6 249.7C497.2 239.1 488.2 230.7 474 224.8C475.5 224 477 223.2 478.6 222.6C468.5 218.5 460.5 210.5 456.4 200.4C453.7 207 449.4 212.7 443.9 217C434.1 215.6 422.5 214.7 410.5 214.5L413 218C423 218.2 430.5 219.2 439 220.3C437.5 221.1 436 221.9 434.3 222.6C444.4 226.7 452.4 234.7 456.5 244.8C459.3 237.9 464 231.9 469.9 227.5C484.4 233 493.7 240.9 496.8 250.9C503.1 270.8 484.4 298.5 445.4 326.7C405.2 355.8 348.1 382.9 284.5 403.1C220.9 423.3 158.6 434 109 433.4C100.4 433.3 92.4001 432.8 84.9001 432C77.9001 427.5 72.4001 421 69.3001 413.2C67.1001 418.6 63.8001 423.4 59.6001 427.4C39.7001 421.9 27.0001 413 23.2001 401C15.2001 375.7 36.7 345.2 96.5 310.5L96 306.5C34.2 342.6 10.7001 375 19.4001 402.3C23.5001 415.1 36.0001 424.7 55.8001 430.6C53.1001 432.6 50.2001 434.2 47.1001 435.5C57.2001 439.6 65.2001 447.6 69.3001 457.7C73.1001 448.4 80.2001 440.8 89.3001 436.5C95.5001 437 102 437.3 108.9 437.4H113.1C162.4 437.4 223.5 426.6 285.6 406.9C349.5 386.6 407.1 359.3 447.6 330C488.8 300.2 507.6 271.7 500.6 249.7Z" fill="black"/>
</g>
<path d="M235.272 115.219L193.513 103.431C186.792 101.527 181.438 96.1719 179.533 89.4516L167.781 47.7281C166.38 42.7688 162.139 39.5703 157 39.5703C151.861 39.5703 147.62 42.7688 146.219 47.7281L134.431 89.4875C132.527 96.2078 127.172 101.563 120.452 103.467L78.7281 115.219C73.7688 116.62 70.5703 120.861 70.5703 126C70.5703 131.139 73.7688 135.38 78.7281 136.781L120.487 148.569C127.208 150.473 132.563 155.828 134.467 162.548L146.219 204.272C147.62 209.231 151.861 212.43 157 212.43C162.139 212.43 166.38 209.231 167.781 204.272L179.569 162.513C181.473 155.792 186.828 150.438 193.548 148.533L235.272 136.781C240.231 135.38 243.43 131.139 243.43 126C243.43 120.861 240.231 116.62 235.272 115.219Z" fill="black"/>
</g>
<defs>
<linearGradient id="paint0_linear_11_340" x1="146.466" y1="393.823" x2="383.677" y2="373.887" gradientUnits="userSpaceOnUse">
<stop stop-color="#F1CFFF"/>
<stop offset="1" stop-color="#FFDDDB"/>
</linearGradient>
<clipPath id="clip0_11_340">
<rect width="512" height="512" fill="white"/>
</clipPath>
<clipPath id="clip1_11_340">
<rect width="583.916" height="583.916" fill="white" transform="translate(-36 48)"/>
</clipPath>
</defs>
</svg>
